<?xml version="1.0" encoding="UTF-8"?>
<svg id="pan" xmlns="http://www.w3.org/2000/svg" viewBox="0 0 500 500">
  <defs>
    <style>
      .cls-1 {
        fill: #fff;
      }
    </style>
  </defs>
  <path class="cls-1" d="M420.22,38.13l-6.7-4.83c-10.01-7.22-23.98-4.94-31.2,5.07l-104.6,145.32c-17.79-7.46-37.32-11.6-57.84-11.6-82.51,0-149.41,66.89-149.41,149.41s66.89,149.41,149.41,149.41,149.41-66.89,149.41-149.41c0-42.93-18.13-81.67-47.14-108.89l103.17-143.28c7.2-10.01,4.94-23.98-5.1-31.2ZM406.54,68.4c-5.32,7.76-13.74,11.2-18.8,7.73-5.05-3.49-4.83-12.58.49-20.32,5.34-7.76,13.77-11.2,18.82-7.73,5.05,3.49,4.83,12.58-.51,20.32Z"/>
</svg>