<?xml version="1.0" encoding="UTF-8"?>
<svg id="spoon" xmlns="http://www.w3.org/2000/svg" viewBox="0 0 500 500">
  <defs>
    <style>
      .cls-1 {
        fill: #fff;
      }
    </style>
  </defs>
  <path class="cls-1" d="M307.75,132.56c-5.34,19.35-21.28,48.84-46.22,55.98,3.51,76.57,7.02,153.14,10.53,229.71,0,10.92-8.85,19.77-19.77,19.77h-4.6c-10.92,0-19.77-8.85-19.77-19.77,3.83-76.52,7.66-153.04,11.47-229.56-25.56-6.99-41.4-37.54-46.76-56.13-8.08-28.13-.89-59.32,17.55-79.63,5.49-6.03,19.67-21.68,40.01-21.26,16.86.35,28.52,11.54,34.38,17.18,19.57,18.76,32.06,51.58,23.18,83.71Z"/>
</svg>